{
	"asset":{
		"generator":"Khronos glTF Blender I/O v3.6.27",
		"version":"2.0"
	},
	"scene":0,
	"scenes":[
		{
			"name":"Scene",
			"nodes":[
				0,
				1,
				2,
				3,
				4,
				5,
				6,
				7
			]
		}
	],
	"nodes":[
		{
			"mesh":0,
			"name":"Cylinder.004",
			"rotation":[
				-0.7071068286895752,
				0,
				0,
				0.7071068286895752
			],
			"scale":[
				0.11908584833145142,
				0.4478285312652588,
				0.11908584833145142
			],
			"translation":[
				-8.766901016235352,
				-0.30261051654815674,
				1.2404506206512451
			]
		},
		{
			"mesh":1,
			"name":"Cube.006",
			"rotation":[
				0,
				0,
				-0.030178947374224663,
				0.999544620513916
			],
			"scale":[
				0.7900552749633789,
				0.031595636159181595,
				0.1381421685218811
			],
			"translation":[
				-7.290441989898682,
				-0.9901395440101624,
				-0.034681227058172226
			]
		},
		{
			"mesh":2,
			"name":"cannon 04",
			"rotation":[
				0,
				0,
				-0.030178947374224663,
				0.999544620513916
			],
			"scale":[
				0.7900552749633789,
				0.031595636159181595,
				0.1381421685218811
			],
			"translation":[
				9.807021141052246,
				-0.9901395440101624,
				-0.034681227058172226
			]
		},
		{
			"mesh":3,
			"name":"cannon 03",
			"rotation":[
				0,
				0,
				-0.030178947374224663,
				0.999544620513916
			],
			"scale":[
				0.7900552749633789,
				0.031595636159181595,
				0.1381421685218811
			],
			"translation":[
				5.6025166511535645,
				-0.9901395440101624,
				-0.034681227058172226
			]
		},
		{
			"mesh":4,
			"name":"cannon 02",
			"rotation":[
				0,
				0,
				-0.030178947374224663,
				0.999544620513916
			],
			"scale":[
				0.7900552749633789,
				0.031595636159181595,
				0.1381421685218811
			],
			"translation":[
				1.4392509460449219,
				-0.9901395440101624,
				-0.034681227058172226
			]
		},
		{
			"mesh":5,
			"name":"cannon 01",
			"rotation":[
				-0.7071068286895752,
				0,
				0,
				0.7071068286895752
			],
			"scale":[
				0.11908584833145142,
				0.4478285312652588,
				0.11908584833145142
			],
			"translation":[
				-4.261470794677734,
				-0.30261051654815674,
				1.2404506206512451
			]
		},
		{
			"mesh":6,
			"name":"Cube.002",
			"rotation":[
				-0.027043506503105164,
				0.8956969976425171,
				-0.013394676148891449,
				0.4436396658420563
			],
			"scale":[
				0.7900552153587341,
				0.031595636159181595,
				0.1381421685218811
			],
			"translation":[
				-0.9317013025283813,
				0.08067785203456879,
				-1.1578363180160522
			]
		},
		{
			"mesh":7,
			"name":"Cube.001",
			"rotation":[
				0,
				0,
				-0.030178947374224663,
				0.999544620513916
			],
			"scale":[
				0.7900552749633789,
				0.031595636159181595,
				0.1381421685218811
			],
			"translation":[
				1.4754443168640137,
				0.08067783713340759,
				0
			]
		}
	],
	"materials":[
		{
			"doubleSided":true,
			"name":"Metal",
			"pbrMetallicRoughness":{
				"baseColorFactor":[
					0.3825191259384155,
					0.3825191259384155,
					0.3825191259384155,
					1
				],
				"roughnessFactor":0.10833333432674408
			}
		},
		{
			"doubleSided":true,
			"name":"turret color",
			"pbrMetallicRoughness":{
				"baseColorFactor":[
					0.012294558808207512,
					0.01750820130109787,
					0.417451411485672,
					1
				],
				"metallicFactor":0,
				"roughnessFactor":0.18333332240581512
			}
		}
	],
	"meshes":[
		{
			"name":"Cylinder.013",
			"primitives":[
				{
					"attributes":{
						"POSITION":0,
						"NORMAL":1
					},
					"indices":2,
					"material":0
				},
				{
					"attributes":{
						"POSITION":3,
						"NORMAL":4
					},
					"indices":5,
					"material":1
				}
			]
		},
		{
			"name":"Cube.019",
			"primitives":[
				{
					"attributes":{
						"POSITION":6,
						"NORMAL":7
					},
					"indices":8,
					"material":0
				},
				{
					"attributes":{
						"POSITION":9,
						"NORMAL":10
					},
					"indices":11,
					"material":1
				}
			]
		},
		{
			"name":"Cube.018",
			"primitives":[
				{
					"attributes":{
						"POSITION":12,
						"NORMAL":13
					},
					"indices":14,
					"material":0
				},
				{
					"attributes":{
						"POSITION":15,
						"NORMAL":16
					},
					"indices":17,
					"material":1
				}
			]
		},
		{
			"name":"Cube.017",
			"primitives":[
				{
					"attributes":{
						"POSITION":18,
						"NORMAL":19
					},
					"indices":20,
					"material":0
				},
				{
					"attributes":{
						"POSITION":21,
						"NORMAL":22
					},
					"indices":17,
					"material":1
				}
			]
		},
		{
			"name":"Cube.016",
			"primitives":[
				{
					"attributes":{
						"POSITION":23,
						"NORMAL":24
					},
					"indices":25,
					"material":0
				},
				{
					"attributes":{
						"POSITION":26,
						"NORMAL":27
					},
					"indices":17,
					"material":1
				}
			]
		},
		{
			"name":"Cylinder.007",
			"primitives":[
				{
					"attributes":{
						"POSITION":28,
						"NORMAL":29
					},
					"indices":30,
					"material":0
				},
				{
					"attributes":{
						"POSITION":31,
						"NORMAL":32
					},
					"indices":33,
					"material":1
				}
			]
		},
		{
			"name":"Cube.002",
			"primitives":[
				{
					"attributes":{
						"POSITION":34,
						"NORMAL":35
					},
					"indices":36
				}
			]
		},
		{
			"name":"Cube.001",
			"primitives":[
				{
					"attributes":{
						"POSITION":37,
						"NORMAL":38
					},
					"indices":36
				}
			]
		}
	],
	"accessors":[
		{
			"bufferView":0,
			"componentType":5126,
			"count":1364,
			"max":[
				12.417804718017578,
				4.503737926483154,
				7.768050193786621
			],
			"min":[
				-12.417799949645996,
				-3.8930187225341797,
				-1.107330322265625
			],
			"type":"VEC3"
		},
		{
			"bufferView":1,
			"componentType":5126,
			"count":1364,
			"type":"VEC3"
		},
		{
			"bufferView":2,
			"componentType":5123,
			"count":2832,
			"type":"SCALAR"
		},
		{
			"bufferView":3,
			"componentType":5126,
			"count":8,
			"max":[
				11.89891242980957,
				4.2155232429504395,
				7.768050193786621
			],
			"min":[
				-11.898905754089355,
				1.3932009935379028,
				7.768047332763672
			],
			"type":"VEC3"
		},
		{
			"bufferView":4,
			"componentType":5126,
			"count":8,
			"type":"VEC3"
		},
		{
			"bufferView":5,
			"componentType":5123,
			"count":12,
			"type":"SCALAR"
		},
		{
			"bufferView":6,
			"componentType":5126,
			"count":666,
			"max":[
				-0.5486193895339966,
				48.90894317626953,
				7.568584442138672
			],
			"min":[
				-3.190551519393921,
				-7.275543212890625,
				-7.568583011627197
			],
			"type":"VEC3"
		},
		{
			"bufferView":7,
			"componentType":5126,
			"count":666,
			"type":"VEC3"
		},
		{
			"bufferView":8,
			"componentType":5123,
			"count":1488,
			"type":"SCALAR"
		},
		{
			"bufferView":9,
			"componentType":5126,
			"count":20,
			"max":[
				-1.0315048694610596,
				48.90894317626953,
				5.72119665145874
			],
			"min":[
				-2.869838237762451,
				15.63149356842041,
				-5.145496845245361
			],
			"type":"VEC3"
		},
		{
			"bufferView":10,
			"componentType":5126,
			"count":20,
			"type":"VEC3"
		},
		{
			"bufferView":11,
			"componentType":5123,
			"count":48,
			"type":"SCALAR"
		},
		{
			"bufferView":12,
			"componentType":5126,
			"count":2176,
			"max":[
				-0.015052437782287598,
				103.85971069335938,
				17.233301162719727
			],
			"min":[
				-3.871654510498047,
				-7.275543212890625,
				-7.568583011627197
			],
			"type":"VEC3"
		},
		{
			"bufferView":13,
			"componentType":5126,
			"count":2176,
			"type":"VEC3"
		},
		{
			"bufferView":14,
			"componentType":5123,
			"count":4320,
			"type":"SCALAR"
		},
		{
			"bufferView":15,
			"componentType":5126,
			"count":28,
			"max":[
				-0.15006685256958008,
				58.84513854980469,
				5.72119665145874
			],
			"min":[
				-3.798180103302002,
				15.63149356842041,
				-6.249773025512695
			],
			"type":"VEC3"
		},
		{
			"bufferView":16,
			"componentType":5126,
			"count":28,
			"type":"VEC3"
		},
		{
			"bufferView":17,
			"componentType":5123,
			"count":60,
			"type":"SCALAR"
		},
		{
			"bufferView":18,
			"componentType":5126,
			"count":2130,
			"max":[
				-0.01963639259338379,
				86.68569946289062,
				20.046852111816406
			],
			"min":[
				-3.865126132965088,
				-7.275543212890625,
				-7.568583011627197
			],
			"type":"VEC3"
		},
		{
			"bufferView":19,
			"componentType":5126,
			"count":2130,
			"type":"VEC3"
		},
		{
			"bufferView":20,
			"componentType":5123,
			"count":4320,
			"type":"SCALAR"
		},
		{
			"bufferView":21,
			"componentType":5126,
			"count":28,
			"max":[
				-0.16700243949890137,
				57.955631256103516,
				5.72119665145874
			],
			"min":[
				-3.796027183532715,
				15.63149356842041,
				-6.064669609069824
			],
			"type":"VEC3"
		},
		{
			"bufferView":22,
			"componentType":5126,
			"count":28,
			"type":"VEC3"
		},
		{
			"bufferView":23,
			"componentType":5126,
			"count":2114,
			"max":[
				-0.028002381324768066,
				64.89468383789062,
				21.68467140197754
			],
			"min":[
				-3.8545384407043457,
				-7.275543212890625,
				-7.568583011627197
			],
			"type":"VEC3"
		},
		{
			"bufferView":24,
			"componentType":5126,
			"count":2114,
			"type":"VEC3"
		},
		{
			"bufferView":25,
			"componentType":5123,
			"count":4320,
			"type":"SCALAR"
		},
		{
			"bufferView":26,
			"componentType":5126,
			"count":28,
			"max":[
				-0.18373584747314453,
				55.23126983642578,
				5.72119665145874
			],
			"min":[
				-3.789443016052246,
				15.63149356842041,
				-5.448247909545898
			],
			"type":"VEC3"
		},
		{
			"bufferView":27,
			"componentType":5126,
			"count":28,
			"type":"VEC3"
		},
		{
			"bufferView":28,
			"componentType":5126,
			"count":2034,
			"max":[
				12.417804718017578,
				5.182055473327637,
				7.768050193786621
			],
			"min":[
				-12.417799949645996,
				-3.8930187225341797,
				-6.450868606567383
			],
			"type":"VEC3"
		},
		{
			"bufferView":29,
			"componentType":5126,
			"count":2034,
			"type":"VEC3"
		},
		{
			"bufferView":30,
			"componentType":5123,
			"count":4320,
			"type":"SCALAR"
		},
		{
			"bufferView":31,
			"componentType":5126,
			"count":28,
			"max":[
				11.89891242980957,
				4.434603691101074,
				7.768050193786621
			],
			"min":[
				-11.898905754089355,
				1.0825424194335938,
				-0.514582633972168
			],
			"type":"VEC3"
		},
		{
			"bufferView":32,
			"componentType":5126,
			"count":28,
			"type":"VEC3"
		},
		{
			"bufferView":33,
			"componentType":5123,
			"count":60,
			"type":"SCALAR"
		},
		{
			"bufferView":34,
			"componentType":5126,
			"count":48,
			"max":[
				1.1252375841140747,
				1,
				1
			],
			"min":[
				-0.5377642512321472,
				-1,
				-1
			],
			"type":"VEC3"
		},
		{
			"bufferView":35,
			"componentType":5126,
			"count":48,
			"type":"VEC3"
		},
		{
			"bufferView":36,
			"componentType":5123,
			"count":84,
			"type":"SCALAR"
		},
		{
			"bufferView":37,
			"componentType":5126,
			"count":48,
			"max":[
				1.1252375841140747,
				1,
				1
			],
			"min":[
				-0.5377642512321472,
				-1,
				-1
			],
			"type":"VEC3"
		},
		{
			"bufferView":38,
			"componentType":5126,
			"count":48,
			"type":"VEC3"
		}
	],
	"bufferViews":[
		{
			"buffer":0,
			"byteLength":16368,
			"byteOffset":0,
			"target":34962
		},
		{
			"buffer":0,
			"byteLength":16368,
			"byteOffset":16368,
			"target":34962
		},
		{
			"buffer":0,
			"byteLength":5664,
			"byteOffset":32736,
			"target":34963
		},
		{
			"buffer":0,
			"byteLength":96,
			"byteOffset":38400,
			"target":34962
		},
		{
			"buffer":0,
			"byteLength":96,
			"byteOffset":38496,
			"target":34962
		},
		{
			"buffer":0,
			"byteLength":24,
			"byteOffset":38592,
			"target":34963
		},
		{
			"buffer":0,
			"byteLength":7992,
			"byteOffset":38616,
			"target":34962
		},
		{
			"buffer":0,
			"byteLength":7992,
			"byteOffset":46608,
			"target":34962
		},
		{
			"buffer":0,
			"byteLength":2976,
			"byteOffset":54600,
			"target":34963
		},
		{
			"buffer":0,
			"byteLength":240,
			"byteOffset":57576,
			"target":34962
		},
		{
			"buffer":0,
			"byteLength":240,
			"byteOffset":57816,
			"target":34962
		},
		{
			"buffer":0,
			"byteLength":96,
			"byteOffset":58056,
			"target":34963
		},
		{
			"buffer":0,
			"byteLength":26112,
			"byteOffset":58152,
			"target":34962
		},
		{
			"buffer":0,
			"byteLength":26112,
			"byteOffset":84264,
			"target":34962
		},
		{
			"buffer":0,
			"byteLength":8640,
			"byteOffset":110376,
			"target":34963
		},
		{
			"buffer":0,
			"byteLength":336,
			"byteOffset":119016,
			"target":34962
		},
		{
			"buffer":0,
			"byteLength":336,
			"byteOffset":119352,
			"target":34962
		},
		{
			"buffer":0,
			"byteLength":120,
			"byteOffset":119688,
			"target":34963
		},
		{
			"buffer":0,
			"byteLength":25560,
			"byteOffset":119808,
			"target":34962
		},
		{
			"buffer":0,
			"byteLength":25560,
			"byteOffset":145368,
			"target":34962
		},
		{
			"buffer":0,
			"byteLength":8640,
			"byteOffset":170928,
			"target":34963
		},
		{
			"buffer":0,
			"byteLength":336,
			"byteOffset":179568,
			"target":34962
		},
		{
			"buffer":0,
			"byteLength":336,
			"byteOffset":179904,
			"target":34962
		},
		{
			"buffer":0,
			"byteLength":25368,
			"byteOffset":180240,
			"target":34962
		},
		{
			"buffer":0,
			"byteLength":25368,
			"byteOffset":205608,
			"target":34962
		},
		{
			"buffer":0,
			"byteLength":8640,
			"byteOffset":230976,
			"target":34963
		},
		{
			"buffer":0,
			"byteLength":336,
			"byteOffset":239616,
			"target":34962
		},
		{
			"buffer":0,
			"byteLength":336,
			"byteOffset":239952,
			"target":34962
		},
		{
			"buffer":0,
			"byteLength":24408,
			"byteOffset":240288,
			"target":34962
		},
		{
			"buffer":0,
			"byteLength":24408,
			"byteOffset":264696,
			"target":34962
		},
		{
			"buffer":0,
			"byteLength":8640,
			"byteOffset":289104,
			"target":34963
		},
		{
			"buffer":0,
			"byteLength":336,
			"byteOffset":297744,
			"target":34962
		},
		{
			"buffer":0,
			"byteLength":336,
			"byteOffset":298080,
			"target":34962
		},
		{
			"buffer":0,
			"byteLength":120,
			"byteOffset":298416,
			"target":34963
		},
		{
			"buffer":0,
			"byteLength":576,
			"byteOffset":298536,
			"target":34962
		},
		{
			"buffer":0,
			"byteLength":576,
			"byteOffset":299112,
			"target":34962
		},
		{
			"buffer":0,
			"byteLength":168,
			"byteOffset":299688,
			"target":34963
		},
		{
			"buffer":0,
			"byteLength":576,
			"byteOffset":299856,
			"target":34962
		},
		{
			"buffer":0,
			"byteLength":576,
			"byteOffset":300432,
			"target":34962
		}
	],
	"buffers":[
		{
			"byteLength":301008,
			"uri":"data:application/octet-stream;base64,"
		}
	]
}
